<svg xmlns="http://www.w3.org/2000/svg" viewBox="0 0 160 110" role="img" aria-label="Remcard">
  <title>Remcard</title>

  <!-- Red fan (left) -->
  <path d="M50 88 L18 16 Q46 8 68 24 Z" fill="#E53935"/>
  <path d="M66 98 L48 12 Q84 12 102 40 Z" fill="#E53935"/>
  <path d="M84 104 L86 20 Q116 30 126 58 Z" fill="#E53935"/>
  <path d="M98 106 L118 30 Q142 54 138 84 Z" fill="#E53935"/>

  <!-- White block (right) with bottom notch like in image -->
  <path
    d="M70 26
       h70
       a10 10 0 0 1 10 10
       v50
       a10 10 0 0 1 -10 10
       h-44
       v-14
       h-12
       v14
       h-14
       a10 10 0 0 1 -10 -10
       v-50
       a10 10 0 0 1 10 -10
       z"
    fill="#F5F5F5"
  />
</svg>
