<svg xmlns="http://www.w3.org/2000/svg" viewBox="0 0 190 140" role="img" aria-label="RemCard">
  <title>RemCard</title>
  <!-- Red fan -->
  <path d="M60 118 L18 18 Q62 6 92 32 Z" fill="#E53935"/>
  <path d="M86 132 L56 10 Q108 12 132 52 Z" fill="#E53935"/>
  <path d="M112 138 L112 22 Q154 38 168 86 Z" fill="#E53935"/>
  <path d="M132 140 L154 40 Q182 66 184 108 Z" fill="#E53935"/>

  <!-- White card/paper -->
  <path
    d="M92 42
       h76
       a10 10 0 0 1 10 10
       v64
       a10 10 0 0 1 -10 10
       h-76
       a10 10 0 0 1 -10 -10
       v-64
       a10 10 0 0 1 10 -10
       z"
    fill="#F5F5F5"
  />
  <!-- Dark fold/arrow -->
  <path d="M118 78 h30 v-22 l26 33 -26 33 v-22 h-30z" fill="#121212" opacity="0.9"/>
</svg>
