<svg xmlns="http://www.w3.org/2000/svg" width="520" height="170" viewBox="0 0 520 170" role="img" aria-label="RemCard">
  <title>RemCard</title>
  <defs>
    <style>
      .word{font:700 72px ui-sans-serif,system-ui,-apple-system,Segoe UI,Roboto,Ubuntu,Cantarell,Noto Sans,Arial}
    </style>
  </defs>

  <!-- Mark (red fan + white paper shape) -->
  <g transform="translate(34,34)">
    <!-- red fan -->
    <path d="M44 86 L14 12 Q44 4 68 22 Z" fill="#E53935"/>
    <path d="M64 98 L42 8 Q78 10 96 38 Z" fill="#E53935"/>
    <path d="M84 106 L84 16 Q116 26 126 58 Z" fill="#E53935"/>
    <path d="M100 110 L116 28 Q144 46 146 78 Z" fill="#E53935"/>
    <path d="M112 112 L144 48 Q162 72 156 98 Z" fill="#E53935"/>

    <!-- white paper / corner -->
    <path
      d="M86 46
         h64
         a10 10 0 0 1 10 10
         v48
         a10 10 0 0 1 -10 10
         h-64
         a10 10 0 0 1 -10 -10
         v-48
         a10 10 0 0 1 10 -10
         z"
      fill="#F5F5F5"
      opacity="0.98"
    />
    <!-- small red fold/arrow hint -->
    <path d="M118 76 h26 v-18 l22 27 -22 27 v-18 h-26z" fill="#B71C1C"/>
  </g>

  <!-- Wordmark (light, for dark header) -->
  <text x="218" y="104" class="word" fill="#F5F5F5">RemCard</text>
</svg>
